<svg width="30" height="30" xmlns="http://www.w3.org/2000/svg" xmlns:xlink="http://www.w3.org/1999/xlink" xml:space="preserve" overflow="hidden"><g transform="translate(-658 -908)"><path d="M669.875 928 676.125 928C676.656 928 677.062 928.406 677.062 928.938 677.062 929.469 676.656 929.875 676.125 929.875L669.875 929.875C669.344 929.875 668.938 929.469 668.938 928.938 668.938 928.406 669.344 928 669.875 928Z" fill="#F2F2F2"/><path d="M669.875 931.125 676.125 931.125C676.656 931.125 677.062 931.531 677.062 932.062 677.062 932.594 676.656 933 676.125 933L669.875 933C669.344 933 668.938 932.594 668.938 932.062 668.938 931.531 669.344 931.125 669.875 931.125Z" fill="#F2F2F2"/><path d="M670.969 934.25C671.062 935.312 671.938 936.125 673 936.125 674.062 936.125 674.938 935.312 675.031 934.25L670.969 934.25Z" fill="#F2F2F2"/><path d="M673 909.875C673 909.875 673 909.875 673 909.875 673 909.875 673 909.875 673 909.875 668.562 909.906 664.969 913.469 664.875 917.906L664.875 918.188C664.906 919.156 665.094 920.094 665.438 921 665.781 921.844 666.25 922.625 666.844 923.312 667.594 924.125 668.406 925.719 668.75 926.406 668.844 926.625 669.062 926.75 669.312 926.75L676.688 926.75C676.938 926.75 677.156 926.625 677.25 926.406 677.594 925.719 678.406 924.125 679.156 923.312 679.75 922.625 680.25 921.844 680.562 921 680.906 920.094 681.094 919.156 681.125 918.188L681.125 917.906C681.031 913.469 677.438 909.906 673 909.875ZM679.25 918.156C679.219 918.906 679.062 919.656 678.812 920.344 678.562 920.969 678.219 921.562 677.75 922.062 677.031 922.938 676.406 923.875 675.938 924.875L673 924.875 670.094 924.875C669.594 923.875 668.969 922.938 668.281 922.062 667.844 921.562 667.469 920.969 667.219 920.344 666.938 919.656 666.812 918.906 666.781 918.156L666.781 917.906C666.844 914.5 669.625 911.75 673.031 911.719L673.031 911.719 673.031 911.719C673.031 911.719 673.031 911.719 673.031 911.719 673.031 911.719 673.031 911.719 673.031 911.719L673.031 911.719 673.031 911.719C676.438 911.75 679.219 914.469 679.281 917.906L679.281 918.156Z" fill="#F2F2F2"/></g></svg>