<svg width="30" height="30" xmlns="http://www.w3.org/2000/svg" xmlns:xlink="http://www.w3.org/1999/xlink" xml:space="preserve" overflow="hidden"><g transform="translate(-237 -52)"><path d="M260.75 70.75 243.25 70.75 243.25 60.125 260.75 60.125 260.75 70.75ZM262.625 59.5C262.625 58.8125 262.062 58.25 261.375 58.25L242.625 58.25C241.938 58.25 241.375 58.8125 241.375 59.5L241.375 72.625 262.625 72.625 262.625 59.5Z" fill="#F2F2F2"/><path d="M253.875 73.875 253.875 74.1875C253.875 74.375 253.75 74.5 253.562 74.5L250.438 74.5C250.25 74.5 250.125 74.375 250.125 74.1875L250.125 73.875 237.625 73.875 237.625 74.5C237.625 75.1875 238.188 75.75 238.875 75.75L265.125 75.75C265.812 75.75 266.375 75.1875 266.375 74.5L266.375 73.875 253.875 73.875Z" fill="#F2F2F2"/></g></svg>