<svg width="30" height="30" xmlns="http://www.w3.org/2000/svg" xmlns:xlink="http://www.w3.org/1999/xlink" xml:space="preserve" overflow="hidden"><g transform="translate(-237 -505)"><path d="M263.319 508.75 263.181 508.75C262.867 508.759 262.618 509.02 262.625 509.334L262.625 511.291C262.618 511.605 262.867 511.866 263.181 511.875L263.319 511.875C263.633 511.866 263.882 511.605 263.875 511.291L263.875 509.334C263.882 509.02 263.633 508.759 263.319 508.75Z" fill="#F2F2F2"/><path d="M240.819 508.75 240.681 508.75C240.367 508.759 240.118 509.02 240.125 509.334L240.125 511.291C240.118 511.605 240.367 511.866 240.681 511.875L240.819 511.875C241.133 511.866 241.382 511.605 241.375 511.291L241.375 509.334C241.382 509.02 241.133 508.759 240.819 508.75Z" fill="#F2F2F2"/><path d="M264.188 509.688 264.188 510.938C264.533 510.938 264.812 510.658 264.812 510.312 264.812 509.967 264.533 509.688 264.188 509.688Z" fill="#F2F2F2"/><path d="M239.812 510.938 239.812 509.688C239.467 509.688 239.188 509.967 239.188 510.312 239.188 510.658 239.467 510.938 239.812 510.938Z" fill="#F2F2F2"/><path d="M261.756 507.812 261.619 507.812C261.284 507.849 261.039 508.143 261.062 508.478L261.062 509.688 242.938 509.688 242.938 508.478C242.961 508.143 242.716 507.849 242.381 507.812L242.244 507.812C241.909 507.849 241.664 508.143 241.688 508.478L241.688 512.147C241.664 512.482 241.909 512.776 242.244 512.812L242.381 512.812C242.716 512.776 242.961 512.482 242.938 512.147L242.938 510.938 244.5 510.938 244.5 515.625C244.502 516.07 244.74 516.481 245.125 516.703L249.5 519.281 249.5 522.334 245.072 525.2C244.715 525.43 244.5 525.826 244.5 526.25L244.5 532.188 247 532.188 247 526.931 249.5 525.312 254.5 525.312 257 526.931 257 532.188 259.5 532.188 259.5 526.25C259.5 525.826 259.285 525.43 258.928 525.2L254.5 522.334 254.5 519.281 258.875 516.703C259.26 516.481 259.498 516.07 259.5 515.625L259.5 510.938 261.062 510.938 261.062 512.147C261.039 512.482 261.284 512.776 261.619 512.812L261.756 512.812C262.091 512.776 262.336 512.482 262.312 512.147L262.312 508.478C262.336 508.143 262.091 507.849 261.756 507.812ZM257 514.909 253.128 517.188 250.872 517.188 247 514.909 247 510.938 257 510.938Z" fill="#F2F2F2"/><path d="M254.5 513.75C254.5 515.131 253.381 516.25 252 516.25 250.619 516.25 249.5 515.131 249.5 513.75 249.5 512.369 250.619 511.25 252 511.25 253.381 511.25 254.5 512.369 254.5 513.75Z" fill="#F2F2F2"/></g></svg>