<svg width="30" height="31" xmlns="http://www.w3.org/2000/svg" xmlns:xlink="http://www.w3.org/1999/xlink" xml:space="preserve" overflow="hidden"><g transform="translate(-240 -213)"><path d="M20 9.375C20 12.1364 17.7614 14.375 15 14.375 12.2386 14.375 10 12.1364 10 9.375 10 6.61358 12.2386 4.375 15 4.375 17.7614 4.375 20 6.61358 20 9.375Z" fill="#F2F2F2" transform="matrix(1 0 0 1.03333 240 213)"/><path d="M25 25.625 25 20.625C25 19.875 24.625 19.125 24 18.625 22.625 17.5 20.875 16.75 19.125 16.25 17.875 15.875 16.5 15.625 15 15.625 13.625 15.625 12.25 15.875 10.875 16.25 9.125 16.75 7.375 17.625 6 18.625 5.375 19.125 5 19.875 5 20.625L5 25.625 25 25.625Z" fill="#F2F2F2" transform="matrix(1 0 0 1.03333 240 213)"/></g></svg>