<svg width="30" height="30" xmlns="http://www.w3.org/2000/svg" xmlns:xlink="http://www.w3.org/1999/xlink" xml:space="preserve" overflow="hidden"><g transform="translate(-658 -53)"><path d="M684.875 70.2188C685.781 68.9062 685.719 67.125 684.719 65.875 684.844 65.5 684.906 65.125 684.906 64.75 684.906 62.9688 683.625 61.4688 681.906 61.125 681.375 59.5938 679.969 58.5938 678.344 58.5938 678.062 58.5938 677.75 58.625 677.469 58.6875 676.812 57.9062 675.844 57.4375 674.844 57.3438 673.812 57.2812 672.812 57.625 672.062 58.3125 671.094 57.6562 669.875 57.4688 668.781 57.8125 667.656 58.1562 666.781 59 666.375 60.125 666.312 60.125 666.219 60.125 666.156 60.125 664.094 60.125 662.438 61.75 662.406 63.8125 662.406 63.875 662.406 63.9375 662.406 64 661.156 64.6875 660.438 66.0312 660.531 67.4688 660.656 69.4375 662.406 70.9062 664.406 70.9062L669.25 70.9062C671.312 70.9062 673 72.5625 673.031 74.625L673.031 78.625 675.5 78.625 675.5 75.8125C675.5 75.6875 675.5 75.5312 675.5 75.4062 675.5 74.25 675.469 72.7812 676.281 71.8438 676.781 71.3125 677.344 70.8438 677.938 70.4375 678.406 70.1562 678.812 69.8125 679.156 69.4062 679.312 69.1562 679.469 68.9062 679.562 68.6562 678.906 68.4062 678.219 68.3125 677.531 68.4062 677.188 68.4375 676.875 68.2188 676.812 67.875 676.781 67.5312 677 67.2188 677.344 67.1562 678.188 67.0312 679.031 67.125 679.844 67.4375 679.844 67.3438 679.844 67.2812 679.875 67.1875 679.906 66.6875 679.844 66.1875 679.688 65.7188 679.25 64.5938 678.156 64.0938 677.125 63.6875 676.938 63.625 676.75 63.5625 676.5 63.5L676.312 63.4375 676.281 63.4375C676.031 63.4688 675.812 63.5312 675.562 63.625L675.281 63.6875 674.969 63.75C674.438 64.375 674.156 65.1875 674.219 66.0312 674.281 66.875 674.688 67.625 675.312 68.1562 675.562 68.375 675.562 68.75 675.375 69.0312 675.188 69.25 674.812 69.2812 674.562 69.0938 674.188 68.7812 673.875 68.375 673.625 67.9375L673.562 67.9375C672.688 67.7812 671.688 67.625 670.875 67.0938 670.594 66.9062 670.531 66.5312 670.719 66.25 670.906 65.9688 671.281 65.875 671.562 66.0625 672.031 66.3438 672.562 66.5312 673.125 66.5938 673.062 66.4375 673.031 66.2812 673 66.0938 672.938 65.4062 673.062 64.6875 673.344 64.0625 672.906 64.125 672.5 64.1562 672.062 64.1562 671.688 64.1562 671.312 64.125 670.938 64.0625 670.25 64.9062 669.281 65.5312 668.219 65.7812 666.812 66.5 665.5 67.4062 665.5 68.9375 665.5 69.2812 665.219 69.5625 664.875 69.5625 664.531 69.5625 664.25 69.2812 664.25 68.9375 664.281 67.75 664.812 66.6562 665.719 65.9062 664.969 65.8125 664.281 65.5 663.781 64.9375 663.562 64.6562 663.625 64.2812 663.875 64.0625 664.125 63.8438 664.531 63.875 664.75 64.125 665 64.4375 665.719 64.7188 666.75 64.6875 667.781 64.6875 668.812 64.3125 669.594 63.625 668.688 63.25 667.938 62.5625 667.469 61.6875 667.281 61.375 667.406 61 667.688 60.8438 668 60.6562 668.375 60.7812 668.531 61.0625 669.469 62.75 671.438 63.2188 674.531 62.5 673.969 62.0312 673.562 61.2812 673.594 60.0938 673.594 59.75 673.906 59.4688 674.25 59.5 674.594 59.5 674.875 59.8125 674.844 60.1562 674.781 61.5625 675.562 61.8438 676.812 62.2188 677 62.2812 677.188 62.3125 677.375 62.375 677.719 61.5938 678.406 61 679.25 60.7812 679.594 60.6875 679.938 60.9062 680.031 61.25 680.125 61.5938 679.906 61.9375 679.562 62.0312 679.125 62.1562 678.781 62.4375 678.562 62.8438 678.562 62.875 678.562 62.875 678.562 62.9062 679.531 63.375 680.375 64.0625 680.812 65.2188 680.906 65.4688 680.969 65.7188 681 65.9688 681.125 65.875 681.219 65.75 681.281 65.5938 681.5 65.125 681.656 64.6562 681.719 64.125 681.75 63.9062 681.906 63.7188 682.125 63.625 682.344 63.5312 682.594 63.5938 682.75 63.75 682.938 63.9062 683 64.125 682.938 64.375 682.844 65 682.656 65.625 682.344 66.1875 682.031 66.7188 681.562 67.1562 681 67.4688 680.938 68.25 680.688 69.0312 680.312 69.7188 680.719 70.1875 681.156 70.5938 681.688 70.9062 681.875 71.0312 682 71.25 682 71.4688 682 71.6875 681.875 71.9062 681.656 72 681.438 72.0938 681.219 72.0938 681.031 71.9688 680.5 71.625 680 71.1875 679.562 70.7188 679.25 70.9688 678.906 71.2188 678.594 71.4375 678.062 71.7812 677.594 72.1562 677.188 72.625 676.688 73.2188 676.719 74.375 676.719 75.375 676.719 75.5312 676.719 75.6562 676.719 75.8125L676.719 78.625 679.219 78.625C679.219 74.5625 681.156 74.3438 681.406 74.2812 682.219 74.0625 684.375 72.9375 684.844 70.625 684.906 70.5 684.875 70.3438 684.875 70.2188 684.844 70.2188 684.844 70.2188 684.875 70.2188Z" fill="#F2F2F2"/></g></svg>