<svg width="41" height="42" xmlns="http://www.w3.org/2000/svg" xmlns:xlink="http://www.w3.org/1999/xlink" xml:space="preserve" overflow="hidden"><g transform="translate(-21 -440)"><path d="M32.4583 25.625 8.54167 25.625 8.54167 11.1042 32.4583 11.1042ZM35.0208 10.25C35.0208 9.30653 34.256 8.54167 33.3125 8.54167L7.6875 8.54167C6.74403 8.54167 5.97917 9.30653 5.97917 10.25L5.97917 28.1875 35.0208 28.1875Z" stroke="#464445" stroke-width="0.427083" fill="#464445" transform="matrix(1 0 0 1.02439 21 440)"/><path d="M23.0625 29.8958 23.0625 30.3229C23.0772 30.5441 22.9096 30.7354 22.6884 30.75 22.6708 30.7512 22.6531 30.7512 22.6354 30.75L18.3646 30.75C18.1434 30.7647 17.9522 30.5971 17.9375 30.3759 17.9363 30.3583 17.9363 30.3406 17.9375 30.3229L17.9375 29.8958 0.854167 29.8958 0.854167 30.75C0.854167 31.6935 1.61901 32.4583 2.5625 32.4583L38.4375 32.4583C39.381 32.4583 40.1458 31.6935 40.1458 30.75L40.1458 29.8958Z" stroke="#464445" stroke-width="0.427083" fill="#464445" transform="matrix(1 0 0 1.02439 21 440)"/><path d="M20.5 12.3854C17.1978 12.3854 14.5208 15.0624 14.5208 18.3646 14.5208 21.6668 17.1978 24.3438 20.5 24.3438 23.8022 24.3438 26.4792 21.6668 26.4792 18.3646 26.4792 15.0624 23.8022 12.3854 20.5 12.3854ZM20.9271 18.7917 22.8874 18.7917C22.6642 20.264 21.9775 21.6269 20.9271 22.6824ZM20.9271 17.9375 20.9271 14.0425C21.9786 15.099 22.6653 16.4636 22.8874 17.9375ZM20.0729 17.9375 18.1767 17.9375C18.3891 16.4888 19.0526 15.1439 20.0729 14.0938ZM20.0729 18.7917 20.0729 22.6354C19.0545 21.5839 18.3913 20.2397 18.1767 18.7917ZM17.3182 17.9375 15.4903 17.9375C15.6799 15.7004 17.3311 13.8609 19.5348 13.4318 18.3173 14.6467 17.5376 16.2315 17.3182 17.9375ZM17.3182 18.7917C17.5378 20.5006 18.3208 22.0876 19.5433 23.3017 17.3364 22.8728 15.6819 21.0317 15.4903 18.7917ZM23.7458 18.7917 25.5097 18.7917C25.3227 21.0034 23.7061 22.83 21.5335 23.2846 22.7504 22.0749 23.529 20.4938 23.7458 18.7917ZM23.7458 17.9375C23.5272 16.2398 22.754 14.6619 21.5464 13.4489 23.7125 13.9079 25.3224 15.7312 25.5097 17.9375Z" stroke="#464445" stroke-width="0.427083" fill="#464445" transform="matrix(1 0 0 1.02439 21 440)"/></g></svg>