<svg width="30" height="30" xmlns="http://www.w3.org/2000/svg" xmlns:xlink="http://www.w3.org/1999/xlink" xml:space="preserve" overflow="hidden"><g transform="translate(-238 -495)"><path d="M265.5 509.688C265.5 508.656 264.656 507.812 263.625 507.812L257.688 507.812C257.188 507.812 256.781 507.406 256.75 506.906 256.781 506.344 257.688 505.219 257.688 500.938 257.688 499.906 256.844 499.062 255.812 499.062 254.781 499.062 253.938 499.906 253.938 500.938 253.938 505.688 248.406 508.375 248.312 508.438L248.312 518.438C250.531 518.438 250.688 520.938 254.875 520.938 256.281 520.938 260.5 520.938 260.5 520.938 261.531 520.938 262.375 520.094 262.375 519.062 262.375 518.562 262.188 518.125 261.875 517.812 261.938 517.812 262 517.812 262.062 517.812 263.094 517.812 263.938 516.969 263.938 515.938 263.938 515.438 263.75 514.969 263.406 514.625 264.25 514.438 264.875 513.688 264.875 512.812 264.875 512.281 264.656 511.781 264.281 511.438 265 511.188 265.5 510.5 265.5 509.688Z" fill="#F2F2F2"/><path d="M245.188 506.875 240.5 506.875 240.5 520 245.188 520C245.875 520 246.438 519.438 246.438 518.75L246.438 508.125C246.438 507.438 245.875 506.875 245.188 506.875Z" fill="#F2F2F2"/></g></svg>