<svg width="31" height="31" xmlns="http://www.w3.org/2000/svg" xmlns:xlink="http://www.w3.org/1999/xlink" xml:space="preserve" overflow="hidden"><g transform="translate(-656 -212)"><path d="M658.583 218.458 658.583 236.542 684.417 236.542 684.417 218.458 658.583 218.458ZM671.952 229.728C671.694 229.986 671.306 229.986 671.048 229.728L661.49 220.396 681.543 220.396 671.952 229.728ZM666.818 227.403 660.521 233.732 660.521 221.235 666.818 227.403ZM667.754 228.307 670.176 230.665C670.564 231.02 671.048 231.214 671.532 231.214 672.017 231.214 672.501 231.02 672.889 230.665L675.31 228.307 681.575 234.604 661.457 234.604 667.754 228.307ZM676.182 227.403 682.479 221.268 682.479 233.7 676.182 227.403Z" fill="#F2F2F2"/></g></svg>