<svg width="31" height="31" xmlns="http://www.w3.org/2000/svg" xmlns:xlink="http://www.w3.org/1999/xlink" xml:space="preserve" overflow="hidden"><g transform="translate(-656 -212)"><path d="M672.146 221.688 670.854 221.688C670.144 221.688 669.562 221.106 669.562 220.396L669.562 217.812C669.562 217.102 670.144 216.521 670.854 216.521L672.146 216.521C672.856 216.521 673.438 217.102 673.438 217.812L673.438 220.396C673.438 221.106 672.856 221.688 672.146 221.688Z" fill="#F2F2F2"/><path d="M681.833 228.146 674.083 228.146 674.083 226.854 681.833 226.854 681.833 228.146ZM681.833 232.021 674.083 232.021 674.083 230.729 681.833 230.729 681.833 232.021ZM681.833 235.896 674.083 235.896 674.083 234.604 681.833 234.604 681.833 235.896ZM671.5 235.896 661.167 235.896 661.167 233.312C661.167 232.925 661.36 232.538 661.683 232.279 662.394 231.762 663.298 231.31 664.202 231.052 664.912 230.858 665.623 230.729 666.333 230.729 667.108 230.729 667.819 230.858 668.465 231.052 669.369 231.31 670.273 231.698 670.983 232.279 671.306 232.538 671.5 232.925 671.5 233.312L671.5 235.896ZM666.333 224.917C667.754 224.917 668.917 226.079 668.917 227.5 668.917 228.921 667.754 230.083 666.333 230.083 664.912 230.083 663.75 228.921 663.75 227.5 663.75 226.079 664.912 224.917 666.333 224.917ZM683.125 220.396 674.729 220.396C674.729 221.817 673.567 222.979 672.146 222.979L670.854 222.979C669.433 222.979 668.271 221.817 668.271 220.396L659.875 220.396C659.165 220.396 658.583 220.977 658.583 221.688L658.583 237.188C658.583 237.898 659.165 238.479 659.875 238.479L683.125 238.479C683.835 238.479 684.417 237.898 684.417 237.188L684.417 221.688C684.417 220.977 683.835 220.396 683.125 220.396Z" fill="#F2F2F2"/></g></svg>