<svg width="37" height="38" xmlns="http://www.w3.org/2000/svg" xmlns:xlink="http://www.w3.org/1999/xlink" xml:space="preserve" overflow="hidden"><g transform="translate(-18 -321)"><path d="M31.6042 32.2208 23.8958 24.8979 31.6042 17.575 31.6042 32.2208ZM6.62917 33.1458 14.2604 25.9385 14.8 25.4375C16.8812 23.4719 20.1573 23.4719 22.2385 25.4375L22.7781 25.9385 30.3708 33.1458 6.62917 33.1458ZM5.39583 17.5365 13.1042 24.8594 5.39583 32.1823 5.39583 17.5365ZM10.7917 7.70833 26.2083 7.70833 26.2083 20.5427 22.7396 23.8573C20.2344 21.9302 16.7656 21.9302 14.2604 23.8573L10.7917 20.5427 10.7917 7.70833ZM28.5208 8.74896 28.5208 5.39583 23.125 5.39583 18.5 1.54167 13.875 5.39583 8.47917 5.39583 8.47917 8.7875 3.08333 13.9135 3.08333 35.4583 33.9167 35.4583 33.9167 13.9135 28.5208 8.74896Z" fill="#464445" transform="matrix(1 0 0 1.02703 18 321)"/><path d="M18.5 16.3031C17.8062 16.3031 17.2667 15.725 17.2667 15.0698 17.2667 14.376 17.8448 13.8365 18.5 13.8365 19.1937 13.8365 19.7333 14.376 19.7333 15.0698 19.7333 15.7635 19.1937 16.3031 18.5 16.3031ZM18.5 20.0417C19.3865 20.0417 20.2344 19.8104 21.0052 19.425 21.3135 19.2323 21.4292 18.8469 21.275 18.5385 21.0823 18.2302 20.6969 18.1146 20.3885 18.2687 19.8104 18.5771 19.1552 18.7312 18.5 18.7312 16.4573 18.7312 14.7615 17.0354 14.8 14.9927 14.8 12.95 16.4958 11.2542 18.5385 11.2542 20.5812 11.2542 22.2771 12.9115 22.2771 14.9927L22.2771 16.226C21.5833 16.226 21.0437 15.6865 21.0437 14.9927 21.0437 13.7594 20.1958 12.7188 19.001 12.4875 17.8062 12.2562 16.6115 12.9115 16.1875 14.0292 15.7635 15.1469 16.1875 16.4573 17.2281 17.074 18.2687 17.6906 19.6177 17.4979 20.4271 16.5729 20.8896 17.1125 21.5833 17.4208 22.3156 17.4208 23.0094 17.4208 23.549 16.8812 23.549 16.1875L23.549 14.9542C23.549 12.1792 21.3135 9.94375 18.5385 9.94375 15.7635 9.94375 13.5281 12.1792 13.5281 14.9542 13.4896 17.7677 15.725 20.0031 18.5 20.0417Z" fill="#464445" transform="matrix(1 0 0 1.02703 18 321)"/></g></svg>