<svg width="30" height="30" xmlns="http://www.w3.org/2000/svg" xmlns:xlink="http://www.w3.org/1999/xlink" xml:space="preserve" overflow="hidden"><g transform="translate(-238 -800)"><path d="M263.312 808C261.969 804.906 259.531 802.5 256.375 801.25L255.906 802.406C258.719 803.531 260.938 805.688 262.156 808.5 263.344 811.312 263.406 814.406 262.281 817.219 261.156 820.031 259 822.25 256.188 823.469 253.375 824.656 250.281 824.719 247.469 823.594L247 824.75C248.156 825.219 249.375 825.5 250.594 825.594L250.594 826.812 244.344 826.812 244.344 828.688 259.344 828.688 259.344 826.812 253.094 826.812 253.094 825.562C254.312 825.438 255.5 825.094 256.688 824.625 259.812 823.281 262.188 820.844 263.438 817.688 264.688 814.531 264.656 811.125 263.312 808Z" fill="#F2F2F2"/><path d="M261.906 813C261.906 818.609 257.359 823.156 251.75 823.156 246.141 823.156 241.594 818.609 241.594 813 241.594 807.391 246.141 802.844 251.75 802.844 257.359 802.844 261.906 807.391 261.906 813Z" fill="#F2F2F2"/></g></svg>