<svg width="31" height="30" xmlns="http://www.w3.org/2000/svg" xmlns:xlink="http://www.w3.org/1999/xlink" xml:space="preserve" overflow="hidden"><g transform="translate(-656 -800)"><path d="M24.5312 5.46875 24.2188 2.65625 20.7812 6.09375 20.9688 7.71875 15.9688 12.7188C15.5312 12.5 15.0312 12.3438 14.5 12.3438 12.7812 12.3438 11.375 13.75 11.375 15.4688 11.375 17.1875 12.7812 18.5938 14.5 18.5938 16.2188 18.5938 17.625 17.1875 17.625 15.4688 17.625 14.9375 17.5 14.4688 17.2812 14.0312L22.2812 9.03125 23.9062 9.21875 27.3438 5.78125 24.5312 5.46875Z" fill="#F2F2F2" transform="matrix(1.03333 0 0 1 656 800)"/><path d="M24.7812 10.0938 24.375 10.5312 23.7812 10.4688 23.125 10.375C24 11.875 24.5312 13.5938 24.5312 15.4688 24.5312 20.9688 20.0312 25.4688 14.5312 25.4688 9.03125 25.4688 4.53125 20.9688 4.53125 15.4688 4.53125 9.96875 9.03125 5.46875 14.5312 5.46875 16.375 5.46875 18.125 5.96875 19.625 6.875L19.5625 6.25 19.4688 5.625 19.9062 5.1875 20.125 4.96875C18.4375 4.09375 16.5625 3.59375 14.5312 3.59375 7.96875 3.59375 2.65625 8.90625 2.65625 15.4688 2.65625 22.0312 7.96875 27.3438 14.5312 27.3438 21.0938 27.3438 26.4062 22.0312 26.4062 15.4688 26.4062 13.4375 25.9062 11.5625 25 9.90625L24.7812 10.0938Z" fill="#F2F2F2" transform="matrix(1.03333 0 0 1 656 800)"/><path d="M19.75 13.3438C20.0312 14 20.1562 14.7188 20.1562 15.4688 20.1562 18.5625 17.625 21.0938 14.5312 21.0938 11.4375 21.0938 8.90625 18.5625 8.90625 15.4688 8.90625 12.375 11.4375 9.84375 14.5312 9.84375 15.2812 9.84375 16 10 16.6562 10.25L18.0625 8.84375C17 8.28125 15.8125 7.96875 14.5312 7.96875 10.4062 7.96875 7.03125 11.3438 7.03125 15.4688 7.03125 19.5938 10.4062 22.9688 14.5312 22.9688 18.6562 22.9688 22.0312 19.5938 22.0312 15.4688 22.0312 14.1875 21.7188 13 21.1562 11.9375L19.75 13.3438Z" fill="#F2F2F2" transform="matrix(1.03333 0 0 1 656 800)"/></g></svg>