<svg width="37" height="38" xmlns="http://www.w3.org/2000/svg" xmlns:xlink="http://www.w3.org/1999/xlink" xml:space="preserve" overflow="hidden"><g transform="translate(-18 -263)"><path d="M15.1083 11.2542C15.4167 10.9458 15.6094 10.5219 15.6094 10.0594 15.6094 9.59687 15.4167 9.17292 15.1083 8.86458L9.78958 3.58437C9.48125 3.27604 9.05729 3.08333 8.63333 3.08333 8.20937 3.08333 7.74687 3.27604 7.43854 3.58437L6.86042 4.1625 14.5302 11.8323 15.1083 11.2542Z" fill="#464445" transform="matrix(1 0 0 1.02703 18 263)"/><path d="M22.8552 24.8594C22.701 25.0135 22.4698 25.0906 22.2771 25.0906 22.0844 25.0906 21.8531 25.0135 21.699 24.8594L12.1406 15.3396C11.9865 15.1854 11.9094 14.9542 11.9094 14.7615 11.9094 14.5687 11.9865 14.3375 12.1406 14.1833L13.3354 13.0271 5.66562 5.35729C5.16458 5.85833 4.70208 6.32083 4.39375 6.62917 3.62292 7.36146 3.16042 8.325 3.12188 9.36562 3.00625 11.1 3.43021 12.7573 4.00833 14.376 4.625 15.8021 5.43437 17.151 6.32083 18.4229 9.48125 23.1635 13.451 27.2875 18.076 30.5635 18.8469 31.1417 19.6562 31.6427 20.5042 32.1052 22.4312 33.0687 24.474 33.7625 26.6708 33.9167 28.1354 34.0323 29.6 33.4542 30.6021 32.375L31.6427 31.3344 24.0115 23.6646 22.8552 24.8594Z" fill="#464445" transform="matrix(1 0 0 1.02703 18 263)"/><path d="M33.4156 27.2104 28.0969 21.8917C27.7885 21.5833 27.3646 21.3906 26.9021 21.3906 26.4396 21.3906 26.0156 21.5833 25.7073 21.8917L25.1292 22.5083 32.799 30.1781 33.3771 29.6C33.6854 29.2917 33.8781 28.8677 33.8781 28.4052 33.8781 27.9427 33.724 27.5187 33.4156 27.2104Z" fill="#464445" transform="matrix(1 0 0 1.02703 18 263)"/></g></svg>